<svg xmlns="http://www.w3.org/2000/svg" width="13" height="13" viewBox="0 0 13 13">
  <!-- Fish body -->
  <ellipse cx="7.5" cy="5" rx="3" ry="1.5" fill="#FF6B35" stroke="#CC4400" stroke-width="0.3"/>
  <!-- Fish tail -->
  <path d="M4.2 5L3 3.8L3 6.2Z" fill="#FF6B35" stroke="#CC4400" stroke-width="0.2"/>
  <!-- Fish eye -->
  <circle cx="9.2" cy="4.6" r="0.5" fill="white"/>
  <circle cx="9.35" cy="4.5" r="0.25" fill="#1A1A2E"/>
  <!-- Fish fin -->
  <path d="M7 5L7.5 3.5L8 5" fill="#E85D26"/>

  <!-- Thumb from top -->
  <path d="M6 3.8C6 3 6.5 2 7 1.8C7.5 1.6 8 2.2 8 3L8 4"
        fill="#FDBCB4" stroke="#D4956B" stroke-width="0.3" stroke-linecap="round"/>

  <!-- Index finger from bottom -->
  <path d="M6 6.2C6 7 6.5 8 7 8.2C7.5 8.4 8 7.8 8 7L8 6"
        fill="#FDBCB4" stroke="#D4956B" stroke-width="0.3" stroke-linecap="round"/>

  <!-- Palm -->
  <path d="M5.2 4C4.5 4.5 4.5 5.5 5.2 6L6 6.2L6 3.8Z"
        fill="#FDBCB4" stroke="#D4956B" stroke-width="0.2"/>
</svg>
